<svg viewBox="0 0 32 32" xmlns="http://www.w3.org/2000/svg">
  <defs>
    <linearGradient id="g" x1="0%" y1="0%" x2="100%" y2="100%">
      <stop offset="0%" stopColor="#6366f1" />
      <stop offset="100%" stopColor="#06b6d4" />
    </linearGradient>
  </defs>
  
  {/* Circular background for contrast */}
  <circle cx="16" cy="16" r="16" fill="#000" />
  
  {/* Bold Infinity Symbol */}
  <path
    d="M11 12C8.5 12 6.5 14 6.5 16.5C6.5 19 8.5 21 11 21C13 21 14.5 19.5 15.5 18L20.5 13C21.5 11.5 23 10 25.5 10C28.5 10 30.5 12 30.5 15C30.5 18 28.5 20 25.5 20C23.5 20 22 18.5 21 17L16 22C15 23.5 13.5 25 11 25C7 25 4 22 4 16.5C4 11 7 8 11 8C13 8 14.5 9 15.5 10.5L16 11"
    stroke="url(#g)"
    strokeWidth="5"
    strokeLinecap="round"
    transform="scale(0.8) translate(4, 4)"
  />
</svg>